<?xml version="1.0" encoding="utf-8"?>
<!-- Generator: Adobe Illustrator 17.0.0, SVG Export Plug-In . SVG Version: 6.00 Build 0)  -->
<!DOCTYPE svg PUBLIC "-//W3C//DTD SVG 1.1//EN" "http://www.w3.org/Graphics/SVG/1.1/DTD/svg11.dtd">
<svg version="1.1" id="Layer_1" xmlns="http://www.w3.org/2000/svg" xmlns:xlink="http://www.w3.org/1999/xlink" x="0px" y="0px"
	 width="193.797px" height="193.789px" viewBox="157.591 -8.383 193.797 193.789"
	 enable-background="new 157.591 -8.383 193.797 193.789" xml:space="preserve">
<g>
	<path fill="#231F20" d="M160.728,185.465h190.66v-0.061c-29.614,0-59.227-0.001-88.841,0.001
		C228.607,185.406,194.668,185.386,160.728,185.465z"/>
	<path fill="#231F20" d="M157.589,22.058c0-3.672,0.005-3.672,3.624-3.673c4.996-0.002,9.997,0.124,14.987-0.059
		c2.539-0.093,3.35,0.542,3.345,3.261c-0.088,47.293-0.059,94.586-0.053,141.879c0,3.837,0.007,3.843,3.937,3.836
		c23.516-0.042,47.032-0.131,70.548-0.124c32.47,0.009,64.941,0.021,97.411,0.032V-8.383H157.539v190.67
		C157.608,128.877,157.589,75.467,157.589,22.058z"/>
	<path fill="#231F20" d="M157.539,182.286v3.179h3.189C158.247,185.471,157.536,184.794,157.539,182.286z"/>
</g>
<path fill="#FFFFFF" d="M272.703,82.435c7.499,4.518,10.396,11.26,10.947,19.065c0.928,13.125-1.543,25.295-11.537,34.804
	c-6.384,6.075-14.271,8.867-22.958,9.377c-3.932,0.231-7.889,0.039-11.984,0.039c-0.312,1.169-0.579,2.324-0.929,3.452
	c-0.987,3.178-3.318,4.737-6.486,5.094c-3.001,0.338-5.11-0.996-5.761-3.95c-0.475-2.157-0.676-4.455-0.522-6.657
	c1.212-17.354,2.253-34.727,3.922-52.038c1.264-13.106,3.324-26.138,5.132-39.189c0.887-6.406,3.627-8.867,8.922-8.408
	c3.147,0.273,4.771,1.798,4.8,4.941c0.02,2.136-0.238,4.301-0.615,6.41c-4.176,23.351-6.559,46.902-7.913,70.567
	c-0.039,0.677,0.686,1.954,1.184,2.023c6.825,0.942,13.633,0.994,19.961-2.226c7.804-3.971,12.013-12.674,10.911-22.208
	c-0.655-5.664-2.598-10.623-8.309-13.004c-1.793-0.748-3.809-1.041-5.755-1.323c-3.029-0.439-3.997-1.142-4.147-4.203
	c-0.121-2.474,0.004-5.002,0.384-7.449c0.582-3.746,2.016-4.894,5.837-5.338c6.246-0.725,11.842-2.798,16.278-7.517
	c5.956-6.336,7.896-18.589,4.077-26.413c-2.397-4.911-6.368-7.847-11.618-9.021c-9.934-2.222-19.32-0.309-28.355,3.985
	c-5.497,2.612-10.355,6.112-14.74,10.332c-1.699,1.635-3.579,3.887-6.227,2.631c-2.498-1.185-2.283-4.017-2.421-6.411
	c-0.276-4.802,1.078-9.042,4.586-12.437c13.806-13.364,30.272-19.209,49.331-16.531c13.316,1.871,21.081,10.372,24.053,23.116
	c2.505,10.74,1.813,21.394-2.828,31.598c-3.188,7.008-8.219,12.232-15.087,15.699C274.243,81.543,273.673,81.891,272.703,82.435z"/>
<path fill="#FFFFFF" d="M253.977,167.178c-23.516-0.007-47.032,0.082-70.548,0.124c-3.93,0.007-3.937,0.001-3.937-3.836
	c-0.006-47.293-0.035-94.586,0.053-141.879c0.001-0.458-0.032-0.837-0.082-1.182V-8.383h-21.924v193.815h2.328
	c0.26,0.024,0.546,0.035,0.861,0.034c33.94-0.079,67.879-0.059,101.819-0.06c29.614-0.001,59.227-0.001,88.841-0.001V167.21
	C318.918,167.199,286.447,167.187,253.977,167.178z"/>
</svg>
