<?xml version="1.0" encoding="utf-8"?>
<!-- Generator: Adobe Illustrator 17.0.0, SVG Export Plug-In . SVG Version: 6.00 Build 0)  -->
<!DOCTYPE svg PUBLIC "-//W3C//DTD SVG 1.1//EN" "http://www.w3.org/Graphics/SVG/1.1/DTD/svg11.dtd">
<svg version="1.1" id="Layer_1" xmlns="http://www.w3.org/2000/svg" xmlns:xlink="http://www.w3.org/1999/xlink" x="0px" y="0px"
	 width="508.927px" height="177.082px" viewBox="0 0 508.927 177.082" enable-background="new 0 0 508.927 177.082"
	 xml:space="preserve">
<path fill="#FFFFFF" d="M175.582,120.526c-0.079-7.409-2.819-13.425-5.964-19.981c-1.99,5.139-3.652,9.636-5.468,14.07
	c-2.686,6.558-5.801,12.93-10.545,18.257c-1.835,2.061-4.182,3.949-6.675,5.08c-5.122,2.325-9.265,0.324-10.873-5.07
	c-0.952-3.194-1.305-6.569-1.897-9.867c-0.143-0.794-0.167-1.609-0.315-3.128c-1.145,3.72-1.823,6.838-3.071,9.709
	c-1.114,2.562-2.578,5.09-4.389,7.202c-2.434,2.837-5.828,2.631-8.282-0.205c-3.121-3.608-4.448-8.135-4.629-12.656
	c-0.358-8.93-0.445-17.912,0.111-26.825c0.482-7.712,1.961-15.366,3.112-23.029c0.279-1.854,0.958-3.657,1.545-5.453
	c0.236-0.721,0.645-1.419,1.108-2.025c1.461-1.909,4.936-2.995,7.012-2.073c2.469,1.097,2.402,3.37,2.147,5.55
	c-1.342,11.461-2.798,22.908-4.064,34.377c-0.319,2.891-0.2,5.85-0.041,8.764c0.047,0.867,0.914,1.69,1.405,2.534
	c0.776-0.59,1.98-1.024,2.26-1.794c2.088-5.729,4.396-11.426,5.856-17.325c2.005-8.098,3.297-16.371,4.959-24.556
	c0.322-1.588,0.769-3.197,1.459-4.654c1.005-2.121,2.84-3.144,5.231-3.124c2.723,0.023,3.885,0.928,3.866,3.682
	c-0.02,3.004-0.334,6.016-0.673,9.007c-1.32,11.638-2.752,23.264-4.015,34.908c-0.238,2.197-0.155,4.505,0.244,6.677
	c0.533,2.907,2.712,3.564,4.521,1.249c2.15-2.752,3.959-5.825,5.556-8.944c6.416-12.523,9.658-26.127,13.229-39.613
	c0.309-1.165,0.572-2.351,0.988-3.478c1.372-3.713,4.033-5.405,7.981-5.157c2.768,0.174,3.944,1.414,3.535,4.199
	c-0.387,2.633-0.894,5.288-1.724,7.809c-2.102,6.383-1.017,12.298,1.697,18.275c2.377,5.235,4.503,10.632,6.141,16.136
	c1.009,3.391,0.896,7.115,1.326,11.048c0.659-0.556,1.495-0.99,1.934-1.676c2.405-3.76,4.572-7.68,7.098-11.354
	c2.225-3.237,2.653-6.659,2.486-10.462c-0.245-5.571-0.063-11.161-0.063-17.147c-1.195,0-2.287-0.038-3.376,0.007
	c-2.629,0.109-4.209-1.288-4.397-3.728c-0.223-2.887-0.229-5.851,0.183-8.708c0.407-2.825,2.009-3.797,4.942-3.855
	c4.019-0.081,4.066-0.076,4.472-4.071c1.309-12.878,3.2-25.677,7.298-37.978c1.859-5.579,4.758-10.823,7.367-16.13
	c0.612-1.245,1.867-2.244,2.99-3.153c3.856-3.122,8.374-2.272,10.04,2.424c1.533,4.319,2.672,8.969,2.893,13.527
	c0.748,15.394-2.417,29.964-10.565,43.252c-0.301,0.49-0.47,1.061-0.941,2.149c3.049,0,5.755-0.009,8.461,0.002
	c3.319,0.013,4.1,0.754,4.291,4.027c0.483,8.312-3.146,12.21-11.418,12.254c-2.843,0.015-5.687,0.055-8.529-0.001
	c-1.4-0.028-2.09,0.446-2.026,1.924c0.428,9.88,0.745,19.767,1.318,29.638c0.116,1.992,0.943,4.04,1.838,5.869
	c2.403,4.912,7.65,5.915,11.548,2.081c3.209-3.156,5.41-6.728,5.681-11.687c0.7-12.817,3.7-25.08,11.763-35.477
	c1.903-2.453,4.407-4.706,7.101-6.223c5.74-3.233,7.934-2.16,9.906,4.243c0.843-0.076,1.749-0.164,2.657-0.239
	c3.88-0.322,5.804,1.179,5.777,5.084c-0.027,3.864-0.481,7.729-0.821,11.587c-0.839,9.521-1.766,19.034-2.537,28.56
	c-0.128,1.583,0.124,3.293,0.62,4.806c0.574,1.749,2.089,2.287,3.391,0.803c3.58-4.081,6.758-8.353,7.278-14.123
	c0.996-11.053,2.168-22.092,3.414-33.12c0.207-1.831,0.987-3.66,1.803-5.343c1.145-2.359,3.207-3.496,5.86-3.559
	c2.679-0.064,3.934,0.926,3.813,3.64c-0.137,3.088-0.607,6.164-1.003,9.236c-0.844,6.558-1.733,13.111-2.603,19.665
	c0.228,0.043,0.456,0.086,0.684,0.129c1.068-3.541,1.835-7.208,3.271-10.593c2.309-5.443,4.881-10.796,7.715-15.983
	c1.064-1.946,2.973-3.608,4.842-4.9c3.832-2.649,8.178-1.025,8.757,3.556c0.576,4.557,0.383,9.252,0.112,13.863
	c-0.277,4.691-1.061,9.352-1.359,14.081c1.294-3.996,2.292-8.12,3.957-11.955c2.149-4.95,4.558-9.839,7.402-14.413
	c1.426-2.292,3.831-4.235,6.212-5.611c3.406-1.969,6.943-0.301,7.8,3.527c0.631,2.818,1.022,5.825,0.769,8.681
	c-0.982,11.065-2.324,22.098-3.391,33.156c-0.262,2.716-0.285,5.527,0.112,8.216c0.437,2.956,2.566,3.583,4.529,1.359
	c2.903-3.29,5.274-6.768,5.503-11.587c0.558-11.751,3.169-23.038,9.434-33.198c2.693-4.367,5.876-8.32,10.887-10.278
	c4.911-1.919,6.451-1.189,8.205,3.688c0.188,0.523,1.016,1.153,1.555,1.16c6.543,0.081,7.882,1.461,7.25,8.095
	c-0.988,10.375-2.134,20.734-3.106,31.11c-0.272,2.907-0.357,5.863-0.139,8.768c0.088,1.171,0.986,2.726,1.964,3.223
	c0.615,0.313,2.435-0.748,3.076-1.648c3.391-4.755,6.169-9.511,6.394-15.897c0.358-10.121,1.959-20.201,3.14-30.286
	c0.187-1.594,0.775-3.193,1.452-4.664c1.023-2.221,2.741-3.706,5.293-4.058c3.529-0.488,5,0.595,4.733,4.148
	c-0.334,4.459-1.075,8.887-1.623,13.33c-0.6,4.871-1.186,9.744-1.761,14.617c-0.047,0.396,0.029,0.805,0.429,1.292
	c0.272-0.86,0.501-1.737,0.824-2.577c2.655-6.894,5.049-13.909,8.123-20.611c1.385-3.019,3.829-5.754,6.337-8.013
	c4.844-4.364,9.836-2.527,10.733,3.879c0.46,3.289,0.413,6.717,0.101,10.035c-0.881,9.345-2.067,18.66-3.026,27.999
	c-0.298,2.903-0.48,5.858-0.266,8.756c0.099,1.343,1.275,2.606,1.963,3.905c1.286-0.719,3.056-1.121,3.771-2.213
	c2.492-3.809,4.452-7.966,6.935-11.781c2.185-3.358,2.615-6.86,2.446-10.74c-0.21-4.811-0.014-9.647,0.189-14.464
	c0.083-1.96-0.533-2.53-2.461-2.51c-4.231,0.045-5.33-0.942-5.824-5.133c-0.199-1.688-0.135-3.447,0.089-5.137
	c0.679-5.123,1.625-5.975,6.78-5.904c1.946,0.027,2.628-0.516,2.841-2.55c1.548-14.751,3.596-29.441,8.756-43.437
	c1.678-4.552,4.318-8.759,6.641-13.057c0.508-0.94,1.477-1.679,2.347-2.368c3.949-3.13,8.306-2.362,10.102,2.33
	c1.517,3.962,2.649,8.273,2.881,12.488c0.873,15.831-2.154,30.85-10.636,44.504c-0.224,0.36-0.389,0.763-0.536,1.162
	c-0.049,0.133,0.047,0.318,0.147,0.856c2.648,0,5.366-0.015,8.084,0.004c3.218,0.023,3.985,0.64,4.21,3.848
	c0.479,6.818-2.058,12.866-11.214,12.46c-2.924-0.129-5.862-0.114-8.783,0.042c-0.661,0.035-1.83,0.929-1.832,1.432
	c-0.058,11.172-1.09,22.414,2.006,33.394c0.232,0.823,0.527,1.648,0.924,2.402c2.775,5.269,8.273,6.078,12.292,1.646
	c2.845-3.138,4.855-6.471,4.63-11.257c-0.514-10.963,1.184-21.677,6.349-31.549c2.203-4.211,4.917-8.057,9.504-10.192
	c5.354-2.492,10.728-1.134,13.594,3.988c1.323,2.365,2.475,5.01,2.9,7.658c1.539,9.589,0.836,18.909-4.632,27.356
	c-3.103,4.793-7.572,7.99-12.669,10.26c-2.109,0.939-2.234,1.922-1.286,3.718c2.851,5.401,8.788,6.146,12.697,1.448
	c1.255-1.509,2.258-3.249,3.234-4.964c1.064-1.869,1.849-3.902,2.988-5.719c0.476-0.759,1.531-1.524,2.357-1.564
	c0.55-0.027,1.626,1.197,1.668,1.908c0.219,3.655,0.613,7.383,0.132,10.977c-0.751,5.609-3.546,10.426-7.647,14.328
	c-6.717,6.391-17.778,4.946-22.949-2.911c-0.984-1.495-1.814-3.091-2.877-4.919c-1.295,1.705-2.462,3.249-3.636,4.788
	c-8.043,10.537-20.586,9.117-26.034-3.004c-1.226-2.727-2.1-5.612-3.141-8.436c-2.631,4.02-5.165,8.08-7.896,12.003
	c-2.118,3.042-4.932,5.305-8.651,6.142c-5.06,1.139-8.554-0.721-10.524-5.531c-2.019-4.926-2.095-10.116-1.72-15.276
	c0.573-7.9,1.463-15.777,2.157-23.669c0.144-1.641,0.021-3.306,0.021-4.959c-0.357-0.11-0.713-0.219-1.069-0.329
	c-0.762,1.113-1.724,2.139-2.254,3.354c-4.372,10.017-6.773,20.581-8.585,31.31c-0.631,3.732-1.37,7.451-2.226,11.137
	c-0.543,2.338-1.899,4.094-4.562,4.229c-2.653,0.135-3.807-1.702-4.587-3.808c-0.641-1.732-1.081-3.539-1.721-5.684
	c-1.4,1.852-2.509,3.475-3.784,4.955c-0.947,1.099-2.011,2.15-3.19,2.987c-3.697,2.622-7.345,2.093-9.814-1.728
	c-1.704-2.637-2.849-5.635-4.343-8.672c-0.271,0.518-0.55,1.159-0.921,1.742c-1.609,2.527-2.934,5.325-4.939,7.489
	c-3.735,4.029-9.682,3.602-13.09-0.738c-1.419-1.806-2.426-3.936-3.809-6.232c-0.878,1.098-1.756,2.184-2.622,3.28
	c-2.641,3.345-5.746,5.966-10.199,6.399c-3.966,0.386-6.966-0.914-8.361-4.624c-1.308-3.478-2.46-7.327-2.337-10.968
	c0.326-9.71,1.399-19.394,2.112-29.093c0.124-1.69-0.054-3.403-0.093-5.105c-0.353-0.083-0.707-0.166-1.06-0.249
	c-0.719,1.087-1.733,2.081-2.11,3.276c-2.505,7.948-5.111,15.877-7.203,23.937c-1.445,5.566-2.08,11.341-3.169,17.005
	c-0.239,1.244-0.691,2.521-1.351,3.595c-1.875,3.05-6.016,3.173-7.503-0.03c-1.31-2.823-2.368-6.054-2.41-9.12
	c-0.115-8.425,0.33-16.859,0.622-25.287c0.116-3.355,0.463-6.703,0.598-10.058c0.041-1.028-0.274-2.071-0.426-3.107
	c-0.265-0.073-0.53-0.147-0.795-0.22c-0.617,0.824-1.513,1.56-1.805,2.487c-2.093,6.636-4.36,13.24-5.988,19.995
	c-1.591,6.601-2.452,13.376-3.721,20.058c-0.302,1.59-0.893,3.137-1.461,4.662c-0.711,1.908-2.297,3.167-4.175,2.743
	c-1.45-0.327-3.099-1.518-3.845-2.799c-1.09-1.872-1.45-4.169-2.229-6.624c-0.755,1.006-1.387,1.883-2.055,2.731
	c-0.905,1.15-1.761,2.351-2.77,3.404c-4.923,5.142-9.956,4.489-13.241-1.797c-1.14-2.181-1.907-4.557-2.977-7.167
	c-0.735,1.502-1.263,2.832-2.002,4.03c-1.124,1.821-2.192,3.743-3.642,5.285c-4.235,4.503-10.345,4.025-13.937-1.042
	c-1.23-1.734-2.111-3.716-3.273-5.802c-1.281,1.576-2.432,3.061-3.655,4.485c-6.882,8.02-17.826,7.238-23.204-1.863
	c-1.992-3.371-3.247-7.177-4.959-11.059c-0.355,0.595-0.721,1.272-1.146,1.909c-2.094,3.143-3.987,6.452-6.366,9.364
	c-2.416,2.957-5.879,4.343-9.658,5.014c-1.155,0.205-2.453,0.84-3.239,1.691c-5.743,6.217-13.444,5.037-16.748-2.751
	c-1.615-3.806-1.605-7.74,0.082-11.555c1.621-3.666,3.913-4.824,7.871-4.16C173.369,120.083,174.273,120.275,175.582,120.526z
	 M257.521,79.563c-0.217-0.196-0.434-0.392-0.651-0.589c-1.11,0.523-2.461,0.805-3.279,1.62c-1.624,1.621-3.303,3.354-4.349,5.36
	c-5.209,9.995-6.616,20.725-5.574,31.84c0.093,0.995,0.469,2.032,0.963,2.909c1.421,2.525,3.737,2.785,5.267,0.371
	c1.312-2.07,2.577-4.415,2.961-6.784c1.445-8.918,2.531-17.895,3.729-26.853C256.938,84.819,257.212,82.189,257.521,79.563z
	 M370.986,79.033c-3.948,0.632-5.838,2.928-7.454,5.471c-3.728,5.867-5.485,12.46-6.102,19.25
	c-0.463,5.087-0.247,10.271,0.149,15.374c0.098,1.266,1.891,2.95,3.236,3.364c0.801,0.246,2.805-1.38,3.296-2.567
	c1.335-3.223,2.526-6.599,3.094-10.027c1.124-6.779,1.807-13.632,2.639-20.459C370.246,86.133,370.573,82.819,370.986,79.033z
	 M452.838,59.212c0.355,0.111,0.711,0.221,1.066,0.332c1.655-3.44,3.563-6.784,4.916-10.339c3.704-9.731,5.887-19.756,4.61-30.254
	c-0.141-1.155-0.957-2.228-1.461-3.339c-0.801,1.013-2.038,1.915-2.328,3.057c-1.414,5.568-2.852,11.156-3.758,16.82
	C454.623,43.358,453.83,51.301,452.838,59.212z M212.525,59.145c0.174,0.054,0.348,0.108,0.522,0.162
	c0.302-0.36,0.666-0.684,0.896-1.085c7.094-12.349,10.235-25.593,8.985-39.825c-0.037-0.425-0.064-0.9-0.269-1.25
	c-0.324-0.553-0.742-1.351-1.219-1.427c-0.438-0.07-1.237,0.57-1.474,1.083c-0.717,1.554-1.494,3.151-1.794,4.814
	c-1.588,8.786-3.11,17.586-4.501,26.406C213.093,51.699,212.896,55.436,212.525,59.145z M483.258,102.761
	c7.622-1.715,13.484-12.048,11.146-19.449c-0.401-1.268-1.706-2.948-2.793-3.111c-1.143-0.171-2.994,0.936-3.724,2.028
	C483.745,88.428,483.387,95.516,483.258,102.761z"/>
<path fill="#FFFFFF" d="M253.348,177.052c-49.447,0-98.893-0.001-148.34,0.001c-33.94,0.001-67.879-0.019-101.819,0.06
	c-2.481,0.006-3.192-0.671-3.189-3.179C0.069,120.525,0.05,67.115,0.05,13.706c0-3.672,0.005-3.672,3.624-3.673
	c4.996-0.002,9.997,0.124,14.987-0.059c2.539-0.093,3.35,0.542,3.345,3.261c-0.088,47.293-0.059,94.586-0.053,141.879
	c0,3.837,0.007,3.843,3.937,3.836c23.516-0.042,47.032-0.131,70.548-0.124c135.675,0.038,271.351,0.106,407.026,0.101
	c2.542,0,3.522,0.555,3.372,3.272c-0.233,4.208-0.122,8.44-0.033,12.659c0.036,1.708-0.6,2.374-2.26,2.204
	c-0.597-0.061-1.205-0.009-1.808-0.009C419.606,177.051,336.477,177.051,253.348,177.052z"/>
<path fill="#FFFFFF" d="M92.766,74.083c7.499,4.518,10.396,11.26,10.947,19.065c0.928,13.125-1.543,25.295-11.537,34.804
	c-6.384,6.075-14.271,8.867-22.958,9.377c-3.932,0.231-7.889,0.039-11.984,0.039c-0.312,1.169-0.579,2.324-0.929,3.452
	c-0.987,3.178-3.318,4.737-6.486,5.094c-3.001,0.338-5.11-0.996-5.761-3.95c-0.475-2.157-0.676-4.455-0.522-6.657
	c1.212-17.354,2.253-34.727,3.922-52.038c1.264-13.106,3.324-26.138,5.132-39.189c0.887-6.406,3.627-8.867,8.922-8.408
	c3.147,0.273,4.771,1.798,4.8,4.941c0.02,2.136-0.238,4.301-0.615,6.41c-4.176,23.351-6.559,46.902-7.913,70.567
	c-0.039,0.677,0.686,1.954,1.184,2.023c6.825,0.942,13.633,0.994,19.961-2.226c7.804-3.971,12.013-12.674,10.911-22.208
	c-0.655-5.664-2.598-10.623-8.309-13.004c-1.793-0.748-3.809-1.041-5.755-1.323c-3.029-0.439-3.997-1.142-4.147-4.203
	c-0.121-2.474,0.004-5.002,0.384-7.449c0.582-3.746,2.016-4.894,5.837-5.338c6.246-0.725,11.842-2.798,16.278-7.517
	c5.956-6.336,7.896-18.589,4.077-26.413c-2.397-4.911-6.368-7.847-11.618-9.021c-9.934-2.222-19.32-0.309-28.355,3.985
	c-5.497,2.612-10.355,6.112-14.74,10.332c-1.699,1.635-3.579,3.887-6.227,2.631c-2.498-1.185-2.283-4.017-2.421-6.411
	c-0.276-4.802,1.078-9.042,4.586-12.437C53.236,5.647,69.702-0.198,88.761,2.48c13.316,1.871,21.081,10.372,24.053,23.116
	c2.505,10.74,1.813,21.394-2.828,31.598c-3.188,7.008-8.219,12.232-15.087,15.699C94.306,73.191,93.736,73.539,92.766,74.083z"/>
</svg>
